<?xml version="1.0" encoding="UTF-8"?>
<svg width="65px" height="55px" viewBox="0 0 65 55" version="1.1" xmlns="http://www.w3.org/2000/svg" xmlns:xlink="http://www.w3.org/1999/xlink">
    <!-- Generator: Sketch 57.1 (83088) - https://sketch.com -->
    <title>Shape</title>
    <desc>Created with Sketch.</desc>
    <g id="Pages" stroke="none" stroke-width="1" fill="none" fill-rule="evenodd">
        <g id="Index" transform="translate(-1098.000000, -1281.000000)" fill="#F0C42E" fill-rule="nonzero">
            <g id="services" transform="translate(-5.000000, 1142.000000)">
                <g id="Delivery" transform="translate(138.000000, 72.000000)">
                    <g id="delivery">
                        <path d="M1018.971,121.739 L1018.973,121.739 C1019.046,121.745 1019.12,121.76 1019.193,121.76 C1020.6,121.76 1021.864,120.76 1022.141,119.33 L1029.553,81.087 C1029.86301,79.4610634 1028.80202,77.8899019 1027.178,77.57 L1006.964,73.653 L1005.678,79.515 L1023.091,82.889 L1016.82,115.243 L971.516,106.464 L977.786,74.111 L990.328,76.542 L991.16,70.592 L975.982,67.65 C974.35697,67.3417121 972.787368,68.4015061 972.466,70.024 L965.055,108.268 C964.744445,109.893828 965.805794,111.465071 967.43,111.784 L1018.626,121.707 C1018.74,121.729 1018.855,121.73 1018.971,121.739 Z" id="Shape"></path>
                    </g>
                </g>
            </g>
        </g>
    </g>
</svg>